<?xml version="1.0" encoding="UTF-8"?>
<svg enable-background="new 0 0 512 512" version="1.1" viewBox="0 0 512 512" xml:space="preserve" xmlns="http://www.w3.org/2000/svg">

	
		<path d="m501.33 213.33h-90.388l-114.15-166.04c-3.333-4.854-9.969-6.073-14.833-2.75-4.854 3.344-6.083 9.979-2.75 14.833l105.85 153.96h-258.11l105.85-153.96c3.333-4.854 2.104-11.49-2.75-14.833-4.833-3.323-11.479-2.104-14.833 2.75l-114.15 166.04h-90.388c-5.896 0-10.667 4.771-10.667 10.667s4.771 10.667 10.667 10.667h13.533l65.207 204.94c5.667 17.781 22 29.729 40.656 29.729h251.88c18.656 0 34.99-11.948 40.656-29.74l65.206-204.93h13.534c5.896 0 10.667-4.771 10.667-10.667-1e-3 -5.896-4.772-10.667-10.668-10.667zm-99.073 219.79c-2.833 8.896-11 14.875-20.323 14.875h-251.87c-9.323 0-17.49-5.979-20.323-14.865l-63.151-198.47h418.82l-63.152 198.46z"/>
	</svg>