<svg xmlns="http://www.w3.org/2000/svg" width="13" height="11" viewBox="0 0 13 11"><g><g><path fill="#34404b" d="M5.908.55h-1.02c.677.276 1.037 1.111 1.037 1.968 0 .72-.376 1.34-.909 1.78-.52.429-.618.609-.618.974 0 .312.557.842.848 1.06.85.636 1.125 1.227 1.125 2.214C6.371 9.776 5.246 11 3.207 11 1.42 11-.09 10.23-.09 9c0-1.25 1.377-2.454 3.165-2.454.194 0 .373-.006.558-.006-.245-.252-.438-.56-.438-.941 0-.226.068-.444.163-.637-.097.008-.196.01-.299.01-1.468 0-2.452-1.106-2.452-2.475 0-1.34 1.358-2.498 2.802-2.498h3.22zM4.216 7a2.556 2.556 0 0 0-.8-.137c-1.237-.014-2.344.798-2.344 1.772 0 .994.893 1.822 2.129 1.822 1.737 0 2.343-.777 2.343-1.77 0-.121-.014-.238-.04-.352-.135-.563-.617-.842-1.288-1.335zm.552-4.413C4.625 1.433 3.836.508 3.007.482c-.83-.027-1.386.856-1.243 2.008.143 1.153.932 2.109 1.761 2.135.83.026 1.386-.887 1.243-2.04zm7.448-.145v.813H9.91v2.442h-.77V3.254H6.834v-.813H9.14V-.001h.769v2.442z"/></g></g></svg>