<svg xmlns="http://www.w3.org/2000/svg" width="11" height="11" viewBox="0 0 11 11"><g><g><path fill="#34404b" d="M11 1.826v7.348C11 10.178 10.189 11 9.197 11H1.944C.953 11 .142 10.178.142 9.174V1.826C.142.822.952 0 1.944 0h7.253C10.19 0 11 .822 11 1.826zM3.503 5.5c0 1.155.928 2.095 2.068 2.095 1.14 0 2.068-.94 2.068-2.095 0-.24-.041-.472-.115-.688H3.618a2.108 2.108 0 0 0-.115.688zm6.14-.688H8.58c.05.222.075.452.075.688 0 1.723-1.384 3.126-3.085 3.126-1.702 0-3.086-1.403-3.086-3.126 0-.236.026-.466.076-.688H1.499v4.125c0 .379.305.688.679.688h6.786c.373 0 .679-.31.679-.688zm0-3.093a.343.343 0 0 0-.34-.344h-.678a.343.343 0 0 0-.34.344v.687c0 .189.153.344.34.344h.678c.187 0 .34-.155.34-.344z"/></g></g></svg>