<?xml version="1.0" encoding="UTF-8"?>
<!DOCTYPE svg  PUBLIC '-//W3C//DTD SVG 1.1//EN'  'http://www.w3.org/Graphics/SVG/1.1/DTD/svg11.dtd'>
<svg enable-background="new 0 0 50 50" version="1.1" viewBox="0 0 50 50" xml:space="preserve" xmlns="http://www.w3.org/2000/svg">

	
		<path d="m43.353 18.806h-8.125l-5.845-14.082c-0.521-1.262-1.974-1.866-3.229-1.339-1.263 0.524-1.859 1.974-1.336 3.235l5.056 12.186h-13.922l5.056-12.188c0.523-1.26-0.075-2.709-1.337-3.233-1.257-0.527-2.707 0.079-3.229 1.341l-5.845 14.08h-8.125c-1.367 0-2.472 1.099-2.472 2.465 0 1.364 1.105 2.464 2.472 2.464h0.852l2.515 13.761c0.543 2.97 3.131 5.138 6.15 5.138h21.85c3.021 0 5.606-2.168 6.149-5.138l2.516-13.761h0.853c1.366 0 2.473-1.101 2.473-2.464-5e-3 -1.367-1.11-2.465-2.477-2.465z"/>
</svg>
