<svg fill="#3c4751" stroke="#3c4751" stroke-width="10" id="Layer_1" enable-background="new 0 0 512 512" height="200"
     viewBox="0 0 512 512" width="200" xmlns="http://www.w3.org/2000/svg">
    <g>
        <path d="m497 172.75h-92.422l61.716-61.716c17.545-17.545 17.545-46.093 0-63.639h-.001c-8.476-8.476-19.776-13.144-31.819-13.144s-23.344 4.668-31.819 13.144l-101.824 101.822c-6.659 6.66-10.785 14.906-12.389 23.532h-64.892c-1.635-8.878-5.884-17.036-12.381-23.532l-101.823-101.823c-8.476-8.476-19.776-13.144-31.82-13.144-12.043 0-23.344 4.668-31.819 13.145-8.476 8.476-13.144 19.776-13.144 31.819s4.668 23.344 13.144 31.819l61.716 61.716h-92.423c-8.284 0-15 6.716-15 15v73c0 8.284 6.716 15 15 15h16.126c15.509 53.704 31.286 108.103 46.573 160.807l2.354 8.115c5.739 19.785 24.174 33.079 45.875 33.079h260.077c21.721 0 40.16-13.309 45.886-33.116 16.275-56.3 32.581-112.593 48.893-168.884h16.216c8.284 0 15-6.716 15-15v-73c0-8.285-6.716-15-15-15zm-174.956-2.32 101.823-101.823c2.81-2.81 6.576-4.357 10.606-4.357s7.797 1.547 10.607 4.357c5.848 5.849 5.848 15.365 0 21.213l-101.822 101.824c-5.848 5.85-15.364 5.847-21.214 0-5.849-5.849-5.848-15.365 0-21.214zm-259.482-91.216c0-4.03 1.547-7.796 4.357-10.606 2.924-2.924 6.766-4.386 10.606-4.386 3.841 0 7.683 1.462 10.607 4.386l101.824 101.822c2.81 2.81 4.357 6.577 4.357 10.607s-1.547 7.797-4.357 10.607c-5.848 5.848-15.364 5.849-21.213 0l-101.824-101.824c-2.809-2.81-4.357-6.576-4.357-10.606zm-32.562 123.536h107.422l10.108 10.108c8.773 8.772 20.296 13.158 31.819 13.158s23.047-4.386 31.82-13.159c3.037-3.037 5.576-6.441 7.595-10.107h74.481c1.996 3.626 4.516 7.038 7.586 10.108 8.773 8.772 20.296 13.158 31.819 13.158s23.048-4.386 31.82-13.158l10.107-10.107h107.423v43h-452zm373.069 233.554c-1.979 6.846-8.837 11.446-17.065 11.446h-260.077c-8.221 0-15.078-4.596-17.062-11.436l-2.354-8.114c-14.495-49.973-29.432-101.473-44.16-152.45h387.199c-15.506 53.515-31.009 107.03-46.481 160.554z"/>
        <path d="m157.264 411.37c1.083 7.47 7.494 12.851 14.826 12.851.716 0 1.441-.051 2.17-.157 8.199-1.188 13.882-8.798 12.693-16.996l-14.633-100.969c-1.188-8.198-8.794-13.881-16.996-12.693-8.199 1.188-13.882 8.797-12.693 16.996z"/>
        <path d="m255.906 424.219c8.285 0 15-6.716 15-15v-100.969c0-8.284-6.716-15-15-15s-15 6.716-15 15v100.969c0 8.284 6.716 15 15 15z"/>
        <path d="m337.552 424.063c.729.106 1.454.157 2.17.157 7.332 0 13.744-5.382 14.826-12.851l14.633-100.969c1.188-8.198-4.495-15.808-12.693-16.996-8.198-1.19-15.808 4.495-16.996 12.693l-14.633 100.969c-1.189 8.2 4.495 15.809 12.693 16.997z"/>
    </g>
</svg>