<svg xmlns="http://www.w3.org/2000/svg" width="14" height="11" viewBox="0 0 14 11"><g><g><path fill="#34404b" d="M13.537 1.302c-.48.22-.994.37-1.535.437A2.77 2.77 0 0 0 13.177.202a5.222 5.222 0 0 1-1.697.674A2.625 2.625 0 0 0 9.528 0C8.052 0 6.855 1.243 6.855 2.777c0 .217.024.429.07.632-2.222-.116-4.192-1.221-5.51-2.902-.23.41-.362.888-.362 1.397 0 .963.472 1.813 1.189 2.312a2.589 2.589 0 0 1-1.211-.348v.035c0 1.345.921 2.468 2.144 2.723a2.58 2.58 0 0 1-1.207.047c.34 1.104 1.327 1.907 2.497 1.93a5.236 5.236 0 0 1-3.958 1.15A7.36 7.36 0 0 0 4.605 11c4.917 0 7.606-4.232 7.606-7.901 0-.12-.003-.24-.008-.36.523-.391.976-.88 1.334-1.437z"/></g></g></svg>